<svg xmlns="http://www.w3.org/2000/svg" viewBox="0 0 24 24"><path d="M21.86,4.8H20.37v-1a.5.5,0,0,0-.5-.5H16.23a.51.51,0,0,0-.5.5v1H8v-1a.5.5,0,0,0-.5-.5H3.85a.51.51,0,0,0-.5.5v1H1.86a.51.51,0,0,0-.5.5V8A5.07,5.07,0,0,0,1.6,9.52v9.24a1.91,1.91,0,0,0,1.9,1.9H20.22a1.91,1.91,0,0,0,1.9-1.9V9.52A5.07,5.07,0,0,0,22.36,8V5.3A.5.5,0,0,0,21.86,4.8Zm-5.13-.46h2.64v1h0v.8H16.73Zm-12.38,0H7v1H7v.8H4.35ZM21.12,18.76a.9.9,0,0,1-.9.9H3.5a.91.91,0,0,1-.9-.9V11.28A5,5,0,0,0,5,12.82a25.9,25.9,0,0,0,6.83.92,25.9,25.9,0,0,0,6.83-.92,5,5,0,0,0,2.43-1.54ZM21.36,8a4,4,0,0,1-2.93,3.85,25,25,0,0,1-13.14,0A4,4,0,0,1,2.36,8V5.8h1v.81a.51.51,0,0,0,.5.5H7.49a.5.5,0,0,0,.5-.5V5.8h7.74v.81a.51.51,0,0,0,.5.5h3.64a.5.5,0,0,0,.5-.5V5.8h1Z"/><path d="M7.91 15.31H5.09a1.73 1.73 0 0 0 0 3.46H7.91a1.73 1.73 0 1 0 0-3.46zm0 2.46H5.09a.73.73 0 0 1 0-1.46H7.91a.73.73 0 0 1 0 1.46zM19.13 17.18h-3.6a.5.5 0 0 0-.5.5.5.5 0 0 0 .5.5h3.6a.5.5 0 0 0 .5-.5A.5.5 0 0 0 19.13 17.18zM15.53 16.37h2.11a.5.5 0 0 0 .5-.5.5.5 0 0 0-.5-.5H15.53a.5.5 0 0 0-.5.5A.5.5 0 0 0 15.53 16.37z"/></svg>